<?xml version="1.0" encoding="utf-8"?>
<!-- Generator: Adobe Illustrator 19.2.1, SVG Export Plug-In . SVG Version: 6.00 Build 0)  -->
<svg version="1.1" id="Ebene_1" xmlns="http://www.w3.org/2000/svg" xmlns:xlink="http://www.w3.org/1999/xlink" x="0px" y="0px"
	 viewBox="0 0 71.3 51" style="enable-background:new 0 0 71.3 51;" xml:space="preserve">
<style type="text/css">
	.st0{fill:url(#SVGID_1_);}
	.st1{fill:url(#SVGID_2_);}
	.st2{fill:url(#SVGID_3_);}
	.st3{fill:url(#SVGID_4_);}
	.st4{fill:url(#SVGID_5_);}
	.st5{fill:url(#SVGID_6_);}
	.st6{fill:url(#SVGID_7_);}
	.st7{fill:url(#SVGID_8_);}
	.st8{fill:url(#SVGID_9_);}
	.st9{fill:url(#SVGID_10_);}
	.st10{fill:url(#SVGID_11_);}
	.st11{fill:url(#SVGID_12_);}
	.st12{fill:url(#SVGID_13_);}
	.st13{fill:url(#SVGID_14_);}
	.st14{fill:url(#SVGID_15_);}
	.st15{fill:url(#SVGID_16_);}
	.st16{fill:url(#SVGID_17_);}
	.st17{fill:url(#SVGID_18_);}
	.st18{fill:url(#SVGID_19_);}
	.st19{fill:url(#SVGID_20_);}
	.st20{fill:url(#SVGID_21_);}
	.st21{fill:url(#SVGID_22_);}
	.st22{fill:url(#SVGID_23_);}
	.st23{fill:url(#SVGID_24_);}
	.st24{fill:url(#SVGID_25_);}
	.st25{fill:url(#SVGID_26_);}
	.st26{fill:url(#SVGID_27_);}
	.st27{fill:url(#SVGID_28_);}
	.st28{fill:url(#SVGID_29_);}
	.st29{fill:url(#SVGID_30_);}
	.st30{fill:url(#SVGID_31_);}
	.st31{fill:url(#SVGID_32_);}
	.st32{fill:url(#SVGID_33_);}
	.st33{fill:url(#SVGID_34_);}
	.st34{fill:url(#SVGID_35_);}
	.st35{fill:url(#SVGID_36_);}
	.st36{fill:url(#SVGID_37_);}
	.st37{opacity:0.2;}
	.st38{fill:#38BBD1;}
	.st39{fill:url(#SVGID_38_);}
</style>
<g>
	<g>
		<g>
			<g>
				<linearGradient id="SVGID_1_" gradientUnits="userSpaceOnUse" x1="-129.2381" y1="58.8502" x2="-109.1332" y2="-88.9207">
					<stop  offset="0" style="stop-color:#6FBEC9;stop-opacity:0"/>
					<stop  offset="1" style="stop-color:#6FBEC9;stop-opacity:0.3"/>
				</linearGradient>
				<path class="st0" d="M-137.4,49.9l-3.9,6.8c7.1,3.9,15.2,6.2,23.9,6.3v-7.8C-124.7,55-131.4,53.1-137.4,49.9z"/>
				<linearGradient id="SVGID_2_" gradientUnits="userSpaceOnUse" x1="-104.8346" y1="62.1704" x2="-84.7297" y2="-85.6005">
					<stop  offset="0" style="stop-color:#6FBEC9;stop-opacity:0"/>
					<stop  offset="1" style="stop-color:#6FBEC9;stop-opacity:0.3"/>
				</linearGradient>
				<path class="st1" d="M-115.9,55.2V63c8.7-0.1,16.8-2.4,23.9-6.3l-3.9-6.8C-101.9,53.1-108.7,55-115.9,55.2z"/>
				<linearGradient id="SVGID_3_" gradientUnits="userSpaceOnUse" x1="-98.6982" y1="63.0053" x2="-78.5933" y2="-84.7656">
					<stop  offset="0" style="stop-color:#6FBEC9;stop-opacity:0"/>
					<stop  offset="1" style="stop-color:#6FBEC9;stop-opacity:0.3"/>
				</linearGradient>
				<path class="st2" d="M-105,31.2l8.1,14c5.3-3.2,9.8-7.6,13.1-12.9l-14-8.1C-99.7,27-102.2,29.4-105,31.2z"/>
				<linearGradient id="SVGID_4_" gradientUnits="userSpaceOnUse" x1="-93.7077" y1="63.6843" x2="-73.6028" y2="-84.0866">
					<stop  offset="0" style="stop-color:#6FBEC9;stop-opacity:0"/>
					<stop  offset="1" style="stop-color:#6FBEC9;stop-opacity:0.3"/>
				</linearGradient>
				<path class="st3" d="M-97.1,22.9l14,8.1c3-5.3,4.8-11.3,5-17.8h-16.2C-94.5,16.7-95.5,20-97.1,22.9z"/>
				<linearGradient id="SVGID_5_" gradientUnits="userSpaceOnUse" x1="-95.1245" y1="63.4915" x2="-75.0196" y2="-84.2794">
					<stop  offset="0" style="stop-color:#6FBEC9;stop-opacity:0"/>
					<stop  offset="1" style="stop-color:#6FBEC9;stop-opacity:0.3"/>
				</linearGradient>
				<path class="st4" d="M-94.3,11.7h16.2c0-6.5-1.7-12.6-4.6-18l-14,8.1C-95.2,4.8-94.3,8.2-94.3,11.7z"/>
				<linearGradient id="SVGID_6_" gradientUnits="userSpaceOnUse" x1="-151.1147" y1="55.8738" x2="-131.0098" y2="-91.8971">
					<stop  offset="0" style="stop-color:#6FBEC9;stop-opacity:0"/>
					<stop  offset="1" style="stop-color:#6FBEC9;stop-opacity:0.3"/>
				</linearGradient>
				<path class="st5" d="M-153.4,34.6l-6.8,3.9c4.4,7.1,10.4,13.1,17.6,17.4l3.9-6.8C-144.7,45.5-149.8,40.5-153.4,34.6z"/>
				<linearGradient id="SVGID_7_" gradientUnits="userSpaceOnUse" x1="-116.8703" y1="60.5329" x2="-96.7654" y2="-87.238">
					<stop  offset="0" style="stop-color:#6FBEC9;stop-opacity:0"/>
					<stop  offset="1" style="stop-color:#6FBEC9;stop-opacity:0.3"/>
				</linearGradient>
				<path class="st6" d="M-95.6-25.6l3.9-6.8c-7.2-4.1-15.5-6.4-24.3-6.6v7.8C-108.5-31-101.6-29-95.6-25.6z"/>
				<linearGradient id="SVGID_8_" gradientUnits="userSpaceOnUse" x1="-165.0991" y1="53.9711" x2="-144.9942" y2="-93.7998">
					<stop  offset="0" style="stop-color:#6FBEC9;stop-opacity:0"/>
					<stop  offset="1" style="stop-color:#6FBEC9;stop-opacity:0.3"/>
				</linearGradient>
				<path class="st7" d="M-159.8,13.3h-7.8c0.2,8.7,2.6,16.9,6.6,24l6.8-3.9C-157.6,27.3-159.6,20.5-159.8,13.3z"/>
				<linearGradient id="SVGID_9_" gradientUnits="userSpaceOnUse" x1="-159.9365" y1="54.6735" x2="-139.8316" y2="-93.0974">
					<stop  offset="0" style="stop-color:#6FBEC9;stop-opacity:0"/>
					<stop  offset="1" style="stop-color:#6FBEC9;stop-opacity:0.3"/>
				</linearGradient>
				<path class="st8" d="M-139.1-24.8l-3.9-6.8c-7.3,4.4-13.3,10.5-17.6,17.8l6.8,3.9C-150.2-16-145.2-21.1-139.1-24.8z"/>
				<linearGradient id="SVGID_10_" gradientUnits="userSpaceOnUse" x1="-168.4129" y1="53.5203" x2="-148.308" y2="-94.2506">
					<stop  offset="0" style="stop-color:#6FBEC9;stop-opacity:0"/>
					<stop  offset="1" style="stop-color:#6FBEC9;stop-opacity:0.3"/>
				</linearGradient>
				<path class="st9" d="M-154.6-8.5l-6.8-3.9c-3.9,7.2-6.2,15.4-6.2,24.2h7.8C-159.8,4.4-157.9-2.5-154.6-8.5z"/>
				<linearGradient id="SVGID_11_" gradientUnits="userSpaceOnUse" x1="-141.6666" y1="57.1592" x2="-121.5618" y2="-90.6117">
					<stop  offset="0" style="stop-color:#6FBEC9;stop-opacity:0"/>
					<stop  offset="1" style="stop-color:#6FBEC9;stop-opacity:0.3"/>
				</linearGradient>
				<path class="st10" d="M-117.4-31.1v-7.8c-8.8,0.1-17.1,2.5-24.3,6.6l3.9,6.8C-131.7-29-124.8-31-117.4-31.1z"/>
				<linearGradient id="SVGID_12_" gradientUnits="userSpaceOnUse" x1="-142.3576" y1="57.0652" x2="-122.2527" y2="-90.7057">
					<stop  offset="0" style="stop-color:#6FBEC9;stop-opacity:0"/>
					<stop  offset="1" style="stop-color:#6FBEC9;stop-opacity:0.3"/>
				</linearGradient>
				<path class="st11" d="M-135.5,24.2l-14,8.1c3.3,5.3,7.7,9.7,13.1,12.9l8.1-14C-131.2,29.4-133.6,27-135.5,24.2z"/>
				<linearGradient id="SVGID_13_" gradientUnits="userSpaceOnUse" x1="-109.9826" y1="61.47" x2="-89.8777" y2="-86.3009">
					<stop  offset="0" style="stop-color:#6FBEC9;stop-opacity:0"/>
					<stop  offset="1" style="stop-color:#6FBEC9;stop-opacity:0.3"/>
				</linearGradient>
				<path class="st12" d="M-115.9,34.4v16.2c6.4-0.1,12.4-1.8,17.7-4.7l-8.1-14C-109.2,33.4-112.5,34.3-115.9,34.4z"/>
				<linearGradient id="SVGID_14_" gradientUnits="userSpaceOnUse" x1="-127.7383" y1="59.0542" x2="-107.6334" y2="-88.7167">
					<stop  offset="0" style="stop-color:#6FBEC9;stop-opacity:0"/>
					<stop  offset="1" style="stop-color:#6FBEC9;stop-opacity:0.3"/>
				</linearGradient>
				<path class="st13" d="M-127,31.9l-8.1,14c5.3,2.9,11.3,4.5,17.7,4.7V34.4C-120.9,34.3-124.1,33.4-127,31.9z"/>
				<linearGradient id="SVGID_15_" gradientUnits="userSpaceOnUse" x1="-86.7153" y1="64.6356" x2="-66.6104" y2="-83.1353">
					<stop  offset="0" style="stop-color:#6FBEC9;stop-opacity:0"/>
					<stop  offset="1" style="stop-color:#6FBEC9;stop-opacity:0.3"/>
				</linearGradient>
				<path class="st14" d="M-73.1,38.5l-6.8-3.9c-3.7,5.9-8.7,10.9-14.7,14.5l3.9,6.8C-83.5,51.6-77.5,45.7-73.1,38.5z"/>
				<linearGradient id="SVGID_16_" gradientUnits="userSpaceOnUse" x1="-147.9533" y1="56.3039" x2="-127.8484" y2="-91.467">
					<stop  offset="0" style="stop-color:#6FBEC9;stop-opacity:0"/>
					<stop  offset="1" style="stop-color:#6FBEC9;stop-opacity:0.3"/>
				</linearGradient>
				<path class="st15" d="M-128.7-6.9l-8.1-14c-5.4,3.3-9.9,7.9-13.1,13.3l14,8.1C-134.1-2.5-131.6-5-128.7-6.9z"/>
				<linearGradient id="SVGID_17_" gradientUnits="userSpaceOnUse" x1="-103.5074" y1="62.351" x2="-83.4025" y2="-85.4199">
					<stop  offset="0" style="stop-color:#6FBEC9;stop-opacity:0"/>
					<stop  offset="1" style="stop-color:#6FBEC9;stop-opacity:0.3"/>
				</linearGradient>
				<path class="st16" d="M-97.5,0.5l14-8.1c-3.2-5.4-7.7-10-13.1-13.3l-8.1,14C-101.7-5-99.2-2.5-97.5,0.5z"/>
				<linearGradient id="SVGID_18_" gradientUnits="userSpaceOnUse" x1="-150.8914" y1="55.9042" x2="-130.7865" y2="-91.8667">
					<stop  offset="0" style="stop-color:#6FBEC9;stop-opacity:0"/>
					<stop  offset="1" style="stop-color:#6FBEC9;stop-opacity:0.3"/>
				</linearGradient>
				<path class="st17" d="M-139.1,13.3h-16.2c0.2,6.4,2,12.5,5,17.8l14-8.1C-137.9,20-138.9,16.7-139.1,13.3z"/>
				<linearGradient id="SVGID_19_" gradientUnits="userSpaceOnUse" x1="-136.5186" y1="57.8596" x2="-116.4138" y2="-89.9113">
					<stop  offset="0" style="stop-color:#6FBEC9;stop-opacity:0"/>
					<stop  offset="1" style="stop-color:#6FBEC9;stop-opacity:0.3"/>
				</linearGradient>
				<path class="st18" d="M-117.4-10.4v-16.2c-6.5,0.1-12.7,1.9-18.1,4.9l8.1,14C-124.4-9.3-121-10.2-117.4-10.4z"/>
				<linearGradient id="SVGID_20_" gradientUnits="userSpaceOnUse" x1="-152.7534" y1="55.6508" x2="-132.6485" y2="-92.1201">
					<stop  offset="0" style="stop-color:#6FBEC9;stop-opacity:0"/>
					<stop  offset="1" style="stop-color:#6FBEC9;stop-opacity:0.3"/>
				</linearGradient>
				<path class="st19" d="M-136.6,1.8l-14-8.1c-2.9,5.4-4.6,11.5-4.6,18h16.2C-139,8.2-138.2,4.8-136.6,1.8z"/>
				<linearGradient id="SVGID_21_" gradientUnits="userSpaceOnUse" x1="-118.37" y1="60.3288" x2="-98.2651" y2="-87.4421">
					<stop  offset="0" style="stop-color:#6FBEC9;stop-opacity:0"/>
					<stop  offset="1" style="stop-color:#6FBEC9;stop-opacity:0.3"/>
				</linearGradient>
				<path class="st20" d="M-105.9-7.6l8.1-14c-5.4-3-11.5-4.8-18.1-4.9v16.2C-112.3-10.2-108.9-9.3-105.9-7.6z"/>
				<linearGradient id="SVGID_22_" gradientUnits="userSpaceOnUse" x1="-78.0608" y1="65.8131" x2="-57.956" y2="-81.9578">
					<stop  offset="0" style="stop-color:#6FBEC9;stop-opacity:0"/>
					<stop  offset="1" style="stop-color:#6FBEC9;stop-opacity:0.3"/>
				</linearGradient>
				<path class="st21" d="M-79.1,33.3l6.8,3.9c4-7.1,6.4-15.3,6.6-24h-7.8C-73.8,20.5-75.8,27.3-79.1,33.3z"/>
				<linearGradient id="SVGID_23_" gradientUnits="userSpaceOnUse" x1="-94.7543" y1="63.5419" x2="-74.6494" y2="-84.229">
					<stop  offset="0" style="stop-color:#6FBEC9;stop-opacity:0"/>
					<stop  offset="1" style="stop-color:#6FBEC9;stop-opacity:0.3"/>
				</linearGradient>
				<path class="st22" d="M-79.5-9.8l6.8-3.9c-4.3-7.3-10.4-13.5-17.6-17.9l-3.9,6.8C-88.2-21.1-83.1-16-79.5-9.8z"/>
				<linearGradient id="SVGID_24_" gradientUnits="userSpaceOnUse" x1="-80.9081" y1="65.4257" x2="-60.8032" y2="-82.3452">
					<stop  offset="0" style="stop-color:#6FBEC9;stop-opacity:0"/>
					<stop  offset="1" style="stop-color:#6FBEC9;stop-opacity:0.3"/>
				</linearGradient>
				<path class="st23" d="M-73.5,11.7h7.8C-65.8,3-68-5.3-72-12.5l-6.8,3.9C-75.5-2.5-73.6,4.4-73.5,11.7z"/>
				<linearGradient id="SVGID_25_" gradientUnits="userSpaceOnUse" x1="-131.2077" y1="58.5822" x2="-111.1028" y2="-89.1887">
					<stop  offset="0" style="stop-color:#6FBEC9;stop-opacity:0"/>
					<stop  offset="1" style="stop-color:#6FBEC9;stop-opacity:0.3"/>
				</linearGradient>
				<path class="st24" d="M-126,27.2l5.8-10c-0.4-0.3-0.8-0.7-1.2-1.1l-10,5.8C-130.1,24.1-128.2,25.9-126,27.2z"/>
				<linearGradient id="SVGID_26_" gradientUnits="userSpaceOnUse" x1="-113.0937" y1="61.0467" x2="-92.9889" y2="-86.7242">
					<stop  offset="0" style="stop-color:#6FBEC9;stop-opacity:0"/>
					<stop  offset="1" style="stop-color:#6FBEC9;stop-opacity:0.3"/>
				</linearGradient>
				<path class="st25" d="M-101.8,21.9l-10-5.8c-0.4,0.4-0.8,0.8-1.2,1.1l5.8,10C-105.1,25.9-103.3,24.1-101.8,21.9z"/>
				<linearGradient id="SVGID_27_" gradientUnits="userSpaceOnUse" x1="-117.3549" y1="60.4669" x2="-97.25" y2="-87.304">
					<stop  offset="0" style="stop-color:#6FBEC9;stop-opacity:0"/>
					<stop  offset="1" style="stop-color:#6FBEC9;stop-opacity:0.3"/>
				</linearGradient>
				<path class="st26" d="M-114.4,17.9c-0.5,0.2-1,0.3-1.5,0.4v11.5c2.6-0.1,5.1-0.8,7.3-1.9L-114.4,17.9z"/>
				<linearGradient id="SVGID_28_" gradientUnits="userSpaceOnUse" x1="-120.8755" y1="59.9879" x2="-100.7707" y2="-87.783">
					<stop  offset="0" style="stop-color:#6FBEC9;stop-opacity:0"/>
					<stop  offset="1" style="stop-color:#6FBEC9;stop-opacity:0.3"/>
				</linearGradient>
				<path class="st27" d="M-115.9,5.7c0.7,0.1,1.3,0.3,1.9,0.6l5.8-10c-2.3-1.2-4.9-2-7.7-2.1V5.7z"/>
				<linearGradient id="SVGID_29_" gradientUnits="userSpaceOnUse" x1="-111.3546" y1="61.2833" x2="-91.2497" y2="-86.4876">
					<stop  offset="0" style="stop-color:#6FBEC9;stop-opacity:0"/>
					<stop  offset="1" style="stop-color:#6FBEC9;stop-opacity:0.3"/>
				</linearGradient>
				<path class="st28" d="M-110.5,13.3c-0.1,0.6-0.3,1.1-0.6,1.6l10,5.8c1.2-2.2,2-4.7,2.2-7.4H-110.5z"/>
				<linearGradient id="SVGID_30_" gradientUnits="userSpaceOnUse" x1="-125.2284" y1="59.3957" x2="-105.1235" y2="-88.3752">
					<stop  offset="0" style="stop-color:#6FBEC9;stop-opacity:0"/>
					<stop  offset="1" style="stop-color:#6FBEC9;stop-opacity:0.3"/>
				</linearGradient>
				<path class="st29" d="M-117.4,18.3c-0.5-0.1-1-0.2-1.5-0.4l-5.8,10c2.2,1.1,4.7,1.8,7.3,1.9V18.3z"/>
				<linearGradient id="SVGID_31_" gradientUnits="userSpaceOnUse" x1="-133.557" y1="58.2626" x2="-113.4521" y2="-89.5083">
					<stop  offset="0" style="stop-color:#6FBEC9;stop-opacity:0"/>
					<stop  offset="1" style="stop-color:#6FBEC9;stop-opacity:0.3"/>
				</linearGradient>
				<path class="st30" d="M-131.9,2.8l10,5.8c0.4-0.5,0.8-1,1.3-1.4l-5.8-10C-128.7-1.4-130.6,0.5-131.9,2.8z"/>
				<linearGradient id="SVGID_32_" gradientUnits="userSpaceOnUse" x1="-129.1522" y1="58.8619" x2="-109.0473" y2="-88.909">
					<stop  offset="0" style="stop-color:#6FBEC9;stop-opacity:0"/>
					<stop  offset="1" style="stop-color:#6FBEC9;stop-opacity:0.3"/>
				</linearGradient>
				<path class="st31" d="M-119.4,6.3c0.6-0.3,1.2-0.5,1.9-0.6V-5.8c-2.8,0.1-5.4,0.9-7.7,2.1L-119.4,6.3z"/>
				<linearGradient id="SVGID_33_" gradientUnits="userSpaceOnUse" x1="-111.6335" y1="61.2454" x2="-91.5286" y2="-86.5255">
					<stop  offset="0" style="stop-color:#6FBEC9;stop-opacity:0"/>
					<stop  offset="1" style="stop-color:#6FBEC9;stop-opacity:0.3"/>
				</linearGradient>
				<path class="st32" d="M-100.7,4.1l-10,5.8c0.2,0.6,0.3,1.2,0.4,1.8h11.5C-98.9,9-99.5,6.4-100.7,4.1z"/>
				<linearGradient id="SVGID_34_" gradientUnits="userSpaceOnUse" x1="-135.0715" y1="58.0565" x2="-114.9667" y2="-89.7144">
					<stop  offset="0" style="stop-color:#6FBEC9;stop-opacity:0"/>
					<stop  offset="1" style="stop-color:#6FBEC9;stop-opacity:0.3"/>
				</linearGradient>
				<path class="st33" d="M-123,11.7c0-0.6,0.1-1.2,0.4-1.8l-10-5.8c-1.1,2.3-1.8,4.9-1.8,7.6H-123z"/>
				<linearGradient id="SVGID_35_" gradientUnits="userSpaceOnUse" x1="-114.6549" y1="60.8343" x2="-94.55" y2="-86.9366">
					<stop  offset="0" style="stop-color:#6FBEC9;stop-opacity:0"/>
					<stop  offset="1" style="stop-color:#6FBEC9;stop-opacity:0.3"/>
				</linearGradient>
				<path class="st34" d="M-106.9-2.9l-5.8,10c0.5,0.4,1,0.9,1.3,1.4l10-5.8C-102.8,0.5-104.7-1.4-106.9-2.9z"/>
				<linearGradient id="SVGID_36_" gradientUnits="userSpaceOnUse" x1="-134.4034" y1="58.1474" x2="-114.2986" y2="-89.6235">
					<stop  offset="0" style="stop-color:#6FBEC9;stop-opacity:0"/>
					<stop  offset="1" style="stop-color:#6FBEC9;stop-opacity:0.3"/>
				</linearGradient>
				<path class="st35" d="M-122.3,14.9c-0.3-0.5-0.5-1.1-0.6-1.6h-11.6c0.2,2.7,0.9,5.2,2.2,7.4L-122.3,14.9z"/>
				<linearGradient id="SVGID_37_" gradientUnits="userSpaceOnUse" x1="-123.1604" y1="59.6771" x2="-103.0555" y2="-88.0938">
					<stop  offset="0" style="stop-color:#6FBEC9;stop-opacity:0"/>
					<stop  offset="1" style="stop-color:#6FBEC9;stop-opacity:0.3"/>
				</linearGradient>
				<circle class="st36" cx="-116.7" cy="12" r="4.1"/>
			</g>
		</g>
		<g class="st37">
			<path class="st38" d="M-115.1,69.9l-0.1-2c1.6,0,3.3-0.2,4.9-0.3l0.2,2C-111.7,69.8-113.4,69.9-115.1,69.9z M-120.2,69.9
				c-1.7-0.1-3.4-0.3-5.1-0.5l0.3-2c1.6,0.2,3.3,0.4,4.9,0.5L-120.2,69.9z M-105,68.8l-0.4-2c1.6-0.3,3.2-0.7,4.8-1.2l0.6,1.9
				C-101.7,68-103.3,68.4-105,68.8z M-130.2,68.4c-1.6-0.4-3.3-0.9-4.9-1.4l0.6-1.9c1.5,0.5,3.1,1,4.7,1.4L-130.2,68.4z M-95.2,65.9
				L-96,64c1.5-0.6,3-1.3,4.5-2l0.9,1.8C-92.1,64.5-93.7,65.3-95.2,65.9z M-139.8,65.2c-1.5-0.7-3.1-1.4-4.6-2.2l1-1.8
				c1.4,0.8,2.9,1.5,4.4,2.2L-139.8,65.2z M-86.2,61.3l-1.1-1.7c1.4-0.9,2.7-1.8,4.1-2.8l1.2,1.6C-83.3,59.4-84.7,60.4-86.2,61.3z
				 M-148.8,60.3c-1.4-0.9-2.8-1.9-4.1-3l1.3-1.6c1.3,1,2.6,2,4,2.9L-148.8,60.3z M-78,55.2l-1.3-1.5c1.2-1.1,2.4-2.2,3.5-3.4
				l1.5,1.4C-75.6,52.9-76.8,54.1-78,55.2z M-156.7,53.9c-1.2-1.2-2.4-2.4-3.5-3.7l1.5-1.3c1.1,1.2,2.2,2.4,3.4,3.5L-156.7,53.9z
				 M-71.1,47.8l-1.6-1.2c1-1.3,2-2.6,2.9-4l1.7,1.1C-69.1,45.1-70,46.5-71.1,47.8z M-163.4,46.3c-1-1.4-2-2.8-2.8-4.2l1.7-1
				c0.8,1.4,1.8,2.8,2.7,4.1L-163.4,46.3z M-65.5,39.3l-1.8-0.9c0.8-1.4,1.5-2.9,2.1-4.4l1.8,0.8C-64,36.2-64.7,37.8-65.5,39.3z
				 M-168.7,37.6c-0.7-1.5-1.4-3.1-2-4.7l1.9-0.7c0.6,1.5,1.3,3,2,4.5L-168.7,37.6z M-61.6,29.9l-1.9-0.6c0.5-1.6,0.9-3.1,1.3-4.7
				l1.9,0.4C-60.6,26.7-61,28.3-61.6,29.9z M-172.3,28.1c-0.5-1.6-0.9-3.3-1.2-4.9l2-0.4c0.3,1.6,0.7,3.2,1.2,4.8L-172.3,28.1z
				 M-59.3,20l-2-0.3c0.2-1.6,0.4-3.3,0.5-4.9l2,0.1C-58.9,16.7-59.1,18.4-59.3,20z M-174.3,18.2c-0.2-1.7-0.3-3.4-0.3-5.1l2,0
				c0,1.6,0.1,3.3,0.3,4.9L-174.3,18.2z M-58.7,12h-2c0-1.6-0.1-3.3-0.2-4.9l2-0.2C-58.8,8.6-58.7,10.3-58.7,12z M-172.5,8.2l-2-0.1
				c0.1-1.7,0.3-3.4,0.6-5.1l2,0.3C-172.2,4.9-172.4,6.5-172.5,8.2z M-61.6,2.3c-0.3-1.6-0.6-3.2-1.1-4.8l1.9-0.5
				c0.4,1.6,0.8,3.3,1.1,5L-61.6,2.3z M-171-1.5l-1.9-0.5c0.4-1.6,0.9-3.3,1.4-4.9l1.9,0.7C-170.1-4.7-170.6-3.1-171-1.5z
				 M-64.1-7.2c-0.6-1.5-1.2-3.1-1.9-4.5l1.8-0.9c0.7,1.5,1.4,3.1,2,4.7L-64.1-7.2z M-167.8-10.8l-1.8-0.8c0.7-1.5,1.5-3.1,2.3-4.5
				l1.7,1C-166.4-13.8-167.1-12.3-167.8-10.8z M-68.3-16.1c-0.8-1.4-1.7-2.8-2.7-4.1l1.6-1.2c1,1.4,1.9,2.8,2.8,4.3L-68.3-16.1z
				 M-163-19.4l-1.7-1.1c1-1.4,2-2.8,3-4.1l1.5,1.3C-161.1-22-162.1-20.7-163-19.4z M-74-24.1c-1.1-1.2-2.2-2.5-3.3-3.6l1.4-1.4
				c1.2,1.2,2.4,2.4,3.5,3.7L-74-24.1z M-156.8-27l-1.4-1.4c1.2-1.2,2.4-2.4,3.7-3.5l1.3,1.5C-154.4-29.3-155.6-28.1-156.8-27z
				 M-80.9-31c-1.3-1-2.6-2-3.9-3l1.1-1.6c1.4,1,2.8,2,4,3.1L-80.9-31z M-149.4-33.4l-1.2-1.6c1.4-1,2.8-1.9,4.3-2.8l1,1.7
				C-146.6-35.2-148-34.3-149.4-33.4z M-89-36.6c-1.4-0.8-2.9-1.6-4.4-2.2l0.8-1.8c1.5,0.7,3.1,1.5,4.5,2.3L-89-36.6z M-140.9-38.4
				l-0.9-1.8c1.5-0.7,3.1-1.4,4.7-2l0.7,1.9C-137.9-39.8-139.5-39.1-140.9-38.4z M-97.9-40.7c-1.5-0.5-3.1-1-4.7-1.4l0.5-1.9
				c1.6,0.4,3.3,0.9,4.9,1.5L-97.9-40.7z M-131.7-41.9l-0.5-1.9c1.6-0.5,3.3-0.8,5-1.1l0.4,2C-128.6-42.7-130.2-42.3-131.7-41.9z
				 M-107.4-43.1c-1.6-0.3-3.2-0.5-4.9-0.6l0.2-2c1.7,0.1,3.4,0.3,5,0.6L-107.4-43.1z M-122.1-43.6l-0.2-2c1.7-0.2,3.4-0.3,5.1-0.3
				l0,2C-118.8-43.9-120.5-43.8-122.1-43.6z"/>
		</g>
	</g>
	
		<linearGradient id="SVGID_38_" gradientUnits="userSpaceOnUse" x1="-3424.5632" y1="904.6702" x2="-3440.3965" y2="950.0035" gradientTransform="matrix(0.9647 -0.2634 0.2634 0.9647 3101.7798 -1772.5532)">
		<stop  offset="0" style="stop-color:#6FBEC9;stop-opacity:0"/>
		<stop  offset="1" style="stop-color:#6FBEC9;stop-opacity:0.3"/>
	</linearGradient>
	<path class="st39" d="M35.7,51L0,13.9c0,0,33.7-31.6,71.3,0.7L35.7,51z"/>
</g>
</svg>
