<?xml version="1.0" encoding="utf-8"?>
<!-- Generator: Adobe Illustrator 19.2.1, SVG Export Plug-In . SVG Version: 6.00 Build 0)  -->
<svg version="1.1" id="Ebene_1" xmlns="http://www.w3.org/2000/svg" xmlns:xlink="http://www.w3.org/1999/xlink" x="0px" y="0px"
	 viewBox="0 0 115.9 115.8" style="enable-background:new 0 0 115.9 115.8;" xml:space="preserve">
<style type="text/css">
	.st0{fill:url(#SVGID_1_);}
	.st1{fill:url(#SVGID_2_);}
	.st2{fill:url(#SVGID_3_);}
	.st3{fill:url(#SVGID_4_);}
	.st4{fill:url(#SVGID_5_);}
	.st5{fill:url(#SVGID_6_);}
	.st6{fill:url(#SVGID_7_);}
	.st7{fill:url(#SVGID_8_);}
	.st8{fill:url(#SVGID_9_);}
	.st9{fill:url(#SVGID_10_);}
	.st10{fill:url(#SVGID_11_);}
	.st11{fill:url(#SVGID_12_);}
	.st12{fill:url(#SVGID_13_);}
	.st13{fill:url(#SVGID_14_);}
	.st14{fill:url(#SVGID_15_);}
	.st15{fill:url(#SVGID_16_);}
	.st16{fill:url(#SVGID_17_);}
	.st17{fill:url(#SVGID_18_);}
	.st18{fill:url(#SVGID_19_);}
	.st19{fill:url(#SVGID_20_);}
	.st20{fill:url(#SVGID_21_);}
	.st21{fill:url(#SVGID_22_);}
	.st22{fill:url(#SVGID_23_);}
	.st23{fill:url(#SVGID_24_);}
	.st24{fill:url(#SVGID_25_);}
	.st25{fill:url(#SVGID_26_);}
	.st26{fill:url(#SVGID_27_);}
	.st27{fill:url(#SVGID_28_);}
	.st28{fill:url(#SVGID_29_);}
	.st29{fill:url(#SVGID_30_);}
	.st30{fill:url(#SVGID_31_);}
	.st31{fill:url(#SVGID_32_);}
	.st32{fill:url(#SVGID_33_);}
	.st33{fill:url(#SVGID_34_);}
	.st34{fill:url(#SVGID_35_);}
	.st35{fill:url(#SVGID_36_);}
	.st36{fill:url(#SVGID_37_);}
	.st37{opacity:0.2;}
	.st38{fill:#38BBD1;}
	.st39{fill:url(#SVGID_38_);}
</style>
<g>
	<g>
		<g>
			<g>
				<linearGradient id="SVGID_1_" gradientUnits="userSpaceOnUse" x1="45.3669" y1="104.752" x2="65.4718" y2="-43.0189">
					<stop  offset="0" style="stop-color:#6FBEC9;stop-opacity:0"/>
					<stop  offset="1" style="stop-color:#6FBEC9;stop-opacity:0.3"/>
				</linearGradient>
				<path class="st0" d="M37.2,95.8l-3.9,6.8c7.1,3.9,15.2,6.2,23.9,6.3v-7.8C50,100.9,43.2,99,37.2,95.8z"/>
				<linearGradient id="SVGID_2_" gradientUnits="userSpaceOnUse" x1="69.7704" y1="108.0722" x2="89.8753" y2="-39.6987">
					<stop  offset="0" style="stop-color:#6FBEC9;stop-opacity:0"/>
					<stop  offset="1" style="stop-color:#6FBEC9;stop-opacity:0.3"/>
				</linearGradient>
				<path class="st1" d="M58.7,101.1v7.8c8.7-0.1,16.8-2.4,23.9-6.3l-3.9-6.8C72.7,99,65.9,100.9,58.7,101.1z"/>
				<linearGradient id="SVGID_3_" gradientUnits="userSpaceOnUse" x1="75.9069" y1="108.9071" x2="96.0117" y2="-38.8638">
					<stop  offset="0" style="stop-color:#6FBEC9;stop-opacity:0"/>
					<stop  offset="1" style="stop-color:#6FBEC9;stop-opacity:0.3"/>
				</linearGradient>
				<path class="st2" d="M69.6,77.1l8.1,14c5.3-3.2,9.8-7.6,13.1-12.9l-14-8.1C74.9,72.9,72.5,75.3,69.6,77.1z"/>
				<linearGradient id="SVGID_4_" gradientUnits="userSpaceOnUse" x1="80.8974" y1="109.5861" x2="101.0023" y2="-38.1848">
					<stop  offset="0" style="stop-color:#6FBEC9;stop-opacity:0"/>
					<stop  offset="1" style="stop-color:#6FBEC9;stop-opacity:0.3"/>
				</linearGradient>
				<path class="st3" d="M77.5,68.8l14,8.1c3-5.3,4.8-11.3,5-17.8H80.3C80.1,62.6,79.1,65.9,77.5,68.8z"/>
				<linearGradient id="SVGID_5_" gradientUnits="userSpaceOnUse" x1="79.4805" y1="109.3933" x2="99.5854" y2="-38.3776">
					<stop  offset="0" style="stop-color:#6FBEC9;stop-opacity:0"/>
					<stop  offset="1" style="stop-color:#6FBEC9;stop-opacity:0.3"/>
				</linearGradient>
				<path class="st4" d="M80.3,57.6h16.2c0-6.5-1.7-12.6-4.6-18l-14,8.1C79.4,50.7,80.3,54.1,80.3,57.6z"/>
				<linearGradient id="SVGID_6_" gradientUnits="userSpaceOnUse" x1="23.4903" y1="101.7756" x2="43.5952" y2="-45.9953">
					<stop  offset="0" style="stop-color:#6FBEC9;stop-opacity:0"/>
					<stop  offset="1" style="stop-color:#6FBEC9;stop-opacity:0.3"/>
				</linearGradient>
				<path class="st5" d="M21.2,80.5l-6.8,3.9c4.4,7.1,10.4,13.1,17.6,17.4l3.9-6.8C29.9,91.4,24.8,86.4,21.2,80.5z"/>
				<linearGradient id="SVGID_7_" gradientUnits="userSpaceOnUse" x1="57.7347" y1="106.4347" x2="77.8396" y2="-41.3362">
					<stop  offset="0" style="stop-color:#6FBEC9;stop-opacity:0"/>
					<stop  offset="1" style="stop-color:#6FBEC9;stop-opacity:0.3"/>
				</linearGradient>
				<path class="st6" d="M79,20.3l3.9-6.8C75.8,9.5,67.5,7.1,58.7,7v7.8C66.1,14.9,73,16.9,79,20.3z"/>
				<linearGradient id="SVGID_8_" gradientUnits="userSpaceOnUse" x1="9.5059" y1="99.873" x2="29.6108" y2="-47.8979">
					<stop  offset="0" style="stop-color:#6FBEC9;stop-opacity:0"/>
					<stop  offset="1" style="stop-color:#6FBEC9;stop-opacity:0.3"/>
				</linearGradient>
				<path class="st7" d="M14.8,59.2H7c0.2,8.7,2.6,16.9,6.6,24l6.8-3.9C17,73.2,15,66.4,14.8,59.2z"/>
				<linearGradient id="SVGID_9_" gradientUnits="userSpaceOnUse" x1="14.6685" y1="100.5754" x2="34.7734" y2="-47.1955">
					<stop  offset="0" style="stop-color:#6FBEC9;stop-opacity:0"/>
					<stop  offset="1" style="stop-color:#6FBEC9;stop-opacity:0.3"/>
				</linearGradient>
				<path class="st8" d="M35.5,21.1l-3.9-6.8C24.3,18.7,18.3,24.8,14,32.1l6.8,3.9C24.4,29.9,29.4,24.8,35.5,21.1z"/>
				<linearGradient id="SVGID_10_" gradientUnits="userSpaceOnUse" x1="6.1921" y1="99.4221" x2="26.297" y2="-48.3488">
					<stop  offset="0" style="stop-color:#6FBEC9;stop-opacity:0"/>
					<stop  offset="1" style="stop-color:#6FBEC9;stop-opacity:0.3"/>
				</linearGradient>
				<path class="st9" d="M20,37.4l-6.8-3.9C9.3,40.6,7,48.9,7,57.6h7.8C14.8,50.3,16.7,43.4,20,37.4z"/>
				<linearGradient id="SVGID_11_" gradientUnits="userSpaceOnUse" x1="32.9384" y1="103.0611" x2="53.0433" y2="-44.7098">
					<stop  offset="0" style="stop-color:#6FBEC9;stop-opacity:0"/>
					<stop  offset="1" style="stop-color:#6FBEC9;stop-opacity:0.3"/>
				</linearGradient>
				<path class="st10" d="M57.2,14.8V7c-8.8,0.1-17.1,2.5-24.3,6.6l3.9,6.8C42.9,16.9,49.8,14.9,57.2,14.8z"/>
				<linearGradient id="SVGID_12_" gradientUnits="userSpaceOnUse" x1="32.2475" y1="102.9671" x2="52.3523" y2="-44.8038">
					<stop  offset="0" style="stop-color:#6FBEC9;stop-opacity:0"/>
					<stop  offset="1" style="stop-color:#6FBEC9;stop-opacity:0.3"/>
				</linearGradient>
				<path class="st11" d="M39.1,70.1l-14,8.1c3.3,5.3,7.7,9.7,13.1,12.9l8.1-14C43.4,75.3,41,72.9,39.1,70.1z"/>
				<linearGradient id="SVGID_13_" gradientUnits="userSpaceOnUse" x1="64.6225" y1="107.3718" x2="84.7273" y2="-40.3991">
					<stop  offset="0" style="stop-color:#6FBEC9;stop-opacity:0"/>
					<stop  offset="1" style="stop-color:#6FBEC9;stop-opacity:0.3"/>
				</linearGradient>
				<path class="st12" d="M58.7,80.3v16.2c6.4-0.1,12.4-1.8,17.7-4.7l-8.1-14C65.4,79.3,62.1,80.2,58.7,80.3z"/>
				<linearGradient id="SVGID_14_" gradientUnits="userSpaceOnUse" x1="46.8667" y1="104.9561" x2="66.9716" y2="-42.8148">
					<stop  offset="0" style="stop-color:#6FBEC9;stop-opacity:0"/>
					<stop  offset="1" style="stop-color:#6FBEC9;stop-opacity:0.3"/>
				</linearGradient>
				<path class="st13" d="M47.6,77.8l-8.1,14c5.3,2.9,11.3,4.5,17.7,4.7V80.3C53.7,80.2,50.5,79.3,47.6,77.8z"/>
				<linearGradient id="SVGID_15_" gradientUnits="userSpaceOnUse" x1="87.8897" y1="110.5374" x2="107.9946" y2="-37.2335">
					<stop  offset="0" style="stop-color:#6FBEC9;stop-opacity:0"/>
					<stop  offset="1" style="stop-color:#6FBEC9;stop-opacity:0.3"/>
				</linearGradient>
				<path class="st14" d="M101.5,84.4l-6.8-3.9C91,86.4,86,91.4,80,95l3.9,6.8C91.1,97.5,97.1,91.6,101.5,84.4z"/>
				<linearGradient id="SVGID_16_" gradientUnits="userSpaceOnUse" x1="26.6517" y1="102.2057" x2="46.7566" y2="-45.5652">
					<stop  offset="0" style="stop-color:#6FBEC9;stop-opacity:0"/>
					<stop  offset="1" style="stop-color:#6FBEC9;stop-opacity:0.3"/>
				</linearGradient>
				<path class="st15" d="M45.9,39l-8.1-14c-5.4,3.3-9.9,7.9-13.1,13.3l14,8.1C40.5,43.4,43,40.9,45.9,39z"/>
				<linearGradient id="SVGID_17_" gradientUnits="userSpaceOnUse" x1="71.0976" y1="108.2528" x2="91.2025" y2="-39.5181">
					<stop  offset="0" style="stop-color:#6FBEC9;stop-opacity:0"/>
					<stop  offset="1" style="stop-color:#6FBEC9;stop-opacity:0.3"/>
				</linearGradient>
				<path class="st16" d="M77.1,46.4l14-8.1c-3.2-5.4-7.7-10-13.1-13.3L70,39C72.9,40.9,75.4,43.4,77.1,46.4z"/>
				<linearGradient id="SVGID_18_" gradientUnits="userSpaceOnUse" x1="23.7137" y1="101.806" x2="43.8186" y2="-45.9649">
					<stop  offset="0" style="stop-color:#6FBEC9;stop-opacity:0"/>
					<stop  offset="1" style="stop-color:#6FBEC9;stop-opacity:0.3"/>
				</linearGradient>
				<path class="st17" d="M35.5,59.2H19.4c0.2,6.4,2,12.5,5,17.8l14-8.1C36.7,65.9,35.7,62.6,35.5,59.2z"/>
				<linearGradient id="SVGID_19_" gradientUnits="userSpaceOnUse" x1="38.0864" y1="103.7615" x2="58.1913" y2="-44.0094">
					<stop  offset="0" style="stop-color:#6FBEC9;stop-opacity:0"/>
					<stop  offset="1" style="stop-color:#6FBEC9;stop-opacity:0.3"/>
				</linearGradient>
				<path class="st18" d="M57.2,35.5V19.4c-6.5,0.1-12.7,1.9-18.1,4.9l8.1,14C50.2,36.6,53.6,35.7,57.2,35.5z"/>
				<linearGradient id="SVGID_20_" gradientUnits="userSpaceOnUse" x1="21.8517" y1="101.5527" x2="41.9566" y2="-46.2182">
					<stop  offset="0" style="stop-color:#6FBEC9;stop-opacity:0"/>
					<stop  offset="1" style="stop-color:#6FBEC9;stop-opacity:0.3"/>
				</linearGradient>
				<path class="st19" d="M38,47.8l-14-8.1c-2.9,5.4-4.6,11.5-4.6,18h16.2C35.6,54.1,36.4,50.7,38,47.8z"/>
				<linearGradient id="SVGID_21_" gradientUnits="userSpaceOnUse" x1="56.2351" y1="106.2307" x2="76.34" y2="-41.5402">
					<stop  offset="0" style="stop-color:#6FBEC9;stop-opacity:0"/>
					<stop  offset="1" style="stop-color:#6FBEC9;stop-opacity:0.3"/>
				</linearGradient>
				<path class="st20" d="M68.7,38.3l8.1-14c-5.4-3-11.5-4.8-18.1-4.9v16.2C62.3,35.7,65.7,36.6,68.7,38.3z"/>
				<linearGradient id="SVGID_22_" gradientUnits="userSpaceOnUse" x1="96.5442" y1="111.7149" x2="116.6491" y2="-36.056">
					<stop  offset="0" style="stop-color:#6FBEC9;stop-opacity:0"/>
					<stop  offset="1" style="stop-color:#6FBEC9;stop-opacity:0.3"/>
				</linearGradient>
				<path class="st21" d="M95.5,79.2l6.8,3.9c4-7.1,6.4-15.3,6.6-24h-7.8C100.8,66.4,98.8,73.2,95.5,79.2z"/>
				<linearGradient id="SVGID_23_" gradientUnits="userSpaceOnUse" x1="79.8507" y1="109.4437" x2="99.9556" y2="-38.3272">
					<stop  offset="0" style="stop-color:#6FBEC9;stop-opacity:0"/>
					<stop  offset="1" style="stop-color:#6FBEC9;stop-opacity:0.3"/>
				</linearGradient>
				<path class="st22" d="M95.1,36.1l6.8-3.9c-4.3-7.3-10.4-13.5-17.6-17.9l-3.9,6.8C86.4,24.8,91.5,29.9,95.1,36.1z"/>
				<linearGradient id="SVGID_24_" gradientUnits="userSpaceOnUse" x1="93.697" y1="111.3275" x2="113.8019" y2="-36.4434">
					<stop  offset="0" style="stop-color:#6FBEC9;stop-opacity:0"/>
					<stop  offset="1" style="stop-color:#6FBEC9;stop-opacity:0.3"/>
				</linearGradient>
				<path class="st23" d="M101.1,57.6h7.8c-0.1-8.8-2.3-17-6.2-24.2l-6.8,3.9C99.1,43.4,101,50.3,101.1,57.6z"/>
				<linearGradient id="SVGID_25_" gradientUnits="userSpaceOnUse" x1="43.3973" y1="104.484" x2="63.5022" y2="-43.2869">
					<stop  offset="0" style="stop-color:#6FBEC9;stop-opacity:0"/>
					<stop  offset="1" style="stop-color:#6FBEC9;stop-opacity:0.3"/>
				</linearGradient>
				<path class="st24" d="M48.6,73.1l5.8-10c-0.4-0.3-0.8-0.7-1.2-1.1l-10,5.8C44.5,70,46.4,71.8,48.6,73.1z"/>
				<linearGradient id="SVGID_26_" gradientUnits="userSpaceOnUse" x1="61.5113" y1="106.9485" x2="81.6162" y2="-40.8224">
					<stop  offset="0" style="stop-color:#6FBEC9;stop-opacity:0"/>
					<stop  offset="1" style="stop-color:#6FBEC9;stop-opacity:0.3"/>
				</linearGradient>
				<path class="st25" d="M72.8,67.8l-10-5.8c-0.4,0.4-0.8,0.8-1.2,1.1l5.8,10C69.5,71.8,71.3,70,72.8,67.8z"/>
				<linearGradient id="SVGID_27_" gradientUnits="userSpaceOnUse" x1="57.2501" y1="106.3688" x2="77.355" y2="-41.4021">
					<stop  offset="0" style="stop-color:#6FBEC9;stop-opacity:0"/>
					<stop  offset="1" style="stop-color:#6FBEC9;stop-opacity:0.3"/>
				</linearGradient>
				<path class="st26" d="M60.2,63.8c-0.5,0.2-1,0.3-1.5,0.4v11.5c2.6-0.1,5.1-0.8,7.3-1.9L60.2,63.8z"/>
				<linearGradient id="SVGID_28_" gradientUnits="userSpaceOnUse" x1="53.7295" y1="105.8898" x2="73.8344" y2="-41.8811">
					<stop  offset="0" style="stop-color:#6FBEC9;stop-opacity:0"/>
					<stop  offset="1" style="stop-color:#6FBEC9;stop-opacity:0.3"/>
				</linearGradient>
				<path class="st27" d="M58.7,51.6c0.7,0.1,1.3,0.3,1.9,0.6l5.8-10c-2.3-1.2-4.9-2-7.7-2.1V51.6z"/>
				<linearGradient id="SVGID_29_" gradientUnits="userSpaceOnUse" x1="63.2504" y1="107.1852" x2="83.3553" y2="-40.5858">
					<stop  offset="0" style="stop-color:#6FBEC9;stop-opacity:0"/>
					<stop  offset="1" style="stop-color:#6FBEC9;stop-opacity:0.3"/>
				</linearGradient>
				<path class="st28" d="M64.1,59.2c-0.1,0.6-0.3,1.1-0.6,1.6l10,5.8c1.2-2.2,2-4.7,2.2-7.4H64.1z"/>
				<linearGradient id="SVGID_30_" gradientUnits="userSpaceOnUse" x1="49.3766" y1="105.2976" x2="69.4815" y2="-42.4733">
					<stop  offset="0" style="stop-color:#6FBEC9;stop-opacity:0"/>
					<stop  offset="1" style="stop-color:#6FBEC9;stop-opacity:0.3"/>
				</linearGradient>
				<path class="st29" d="M57.2,64.2c-0.5-0.1-1-0.2-1.5-0.4l-5.8,10c2.2,1.1,4.7,1.8,7.3,1.9V64.2z"/>
				<linearGradient id="SVGID_31_" gradientUnits="userSpaceOnUse" x1="41.0481" y1="104.1644" x2="61.153" y2="-43.6065">
					<stop  offset="0" style="stop-color:#6FBEC9;stop-opacity:0"/>
					<stop  offset="1" style="stop-color:#6FBEC9;stop-opacity:0.3"/>
				</linearGradient>
				<path class="st30" d="M42.7,48.7l10,5.8c0.4-0.5,0.8-1,1.3-1.4l-5.8-10C45.9,44.5,44,46.4,42.7,48.7z"/>
				<linearGradient id="SVGID_32_" gradientUnits="userSpaceOnUse" x1="45.4528" y1="104.7637" x2="65.5577" y2="-43.0072">
					<stop  offset="0" style="stop-color:#6FBEC9;stop-opacity:0"/>
					<stop  offset="1" style="stop-color:#6FBEC9;stop-opacity:0.3"/>
				</linearGradient>
				<path class="st31" d="M55.2,52.2c0.6-0.3,1.2-0.5,1.9-0.6V40.1c-2.8,0.1-5.4,0.9-7.7,2.1L55.2,52.2z"/>
				<linearGradient id="SVGID_33_" gradientUnits="userSpaceOnUse" x1="62.9715" y1="107.1472" x2="83.0764" y2="-40.6237">
					<stop  offset="0" style="stop-color:#6FBEC9;stop-opacity:0"/>
					<stop  offset="1" style="stop-color:#6FBEC9;stop-opacity:0.3"/>
				</linearGradient>
				<path class="st32" d="M73.9,50l-10,5.8c0.2,0.6,0.3,1.2,0.4,1.8h11.5C75.7,54.9,75.1,52.3,73.9,50z"/>
				<linearGradient id="SVGID_34_" gradientUnits="userSpaceOnUse" x1="39.5335" y1="103.9584" x2="59.6384" y2="-43.8125">
					<stop  offset="0" style="stop-color:#6FBEC9;stop-opacity:0"/>
					<stop  offset="1" style="stop-color:#6FBEC9;stop-opacity:0.3"/>
				</linearGradient>
				<path class="st33" d="M51.6,57.6c0-0.6,0.1-1.2,0.4-1.8l-10-5.8c-1.1,2.3-1.8,4.9-1.8,7.6H51.6z"/>
				<linearGradient id="SVGID_35_" gradientUnits="userSpaceOnUse" x1="59.9502" y1="106.7361" x2="80.0551" y2="-41.0348">
					<stop  offset="0" style="stop-color:#6FBEC9;stop-opacity:0"/>
					<stop  offset="1" style="stop-color:#6FBEC9;stop-opacity:0.3"/>
				</linearGradient>
				<path class="st34" d="M67.7,43l-5.8,10c0.5,0.4,1,0.9,1.3,1.4l10-5.8C71.8,46.4,69.9,44.5,67.7,43z"/>
				<linearGradient id="SVGID_36_" gradientUnits="userSpaceOnUse" x1="40.2016" y1="104.0493" x2="60.3065" y2="-43.7216">
					<stop  offset="0" style="stop-color:#6FBEC9;stop-opacity:0"/>
					<stop  offset="1" style="stop-color:#6FBEC9;stop-opacity:0.3"/>
				</linearGradient>
				<path class="st35" d="M52.3,60.8c-0.3-0.5-0.5-1.1-0.6-1.6H40.1c0.2,2.7,0.9,5.2,2.2,7.4L52.3,60.8z"/>
				<linearGradient id="SVGID_37_" gradientUnits="userSpaceOnUse" x1="51.4446" y1="105.5789" x2="71.5495" y2="-42.192">
					<stop  offset="0" style="stop-color:#6FBEC9;stop-opacity:0"/>
					<stop  offset="1" style="stop-color:#6FBEC9;stop-opacity:0.3"/>
				</linearGradient>
				<circle class="st36" cx="57.9" cy="57.9" r="4.1"/>
			</g>
		</g>
		<g class="st37">
			<path class="st38" d="M59.5,115.8l-0.1-2c1.6,0,3.3-0.2,4.9-0.3l0.2,2C62.9,115.7,61.2,115.8,59.5,115.8z M54.5,115.8
				c-1.7-0.1-3.4-0.3-5.1-0.5l0.3-2c1.6,0.2,3.3,0.4,4.9,0.5L54.5,115.8z M69.6,114.7l-0.4-2c1.6-0.3,3.2-0.7,4.8-1.2l0.6,1.9
				C72.9,113.9,71.3,114.3,69.6,114.7z M44.4,114.3c-1.6-0.4-3.3-0.9-4.9-1.4l0.6-1.9c1.5,0.5,3.1,1,4.7,1.4L44.4,114.3z
				 M79.4,111.8l-0.7-1.9c1.5-0.6,3-1.3,4.5-2l0.9,1.8C82.5,110.4,80.9,111.2,79.4,111.8z M34.8,111.1c-1.5-0.7-3.1-1.4-4.6-2.2
				l1-1.8c1.4,0.8,2.9,1.5,4.4,2.2L34.8,111.1z M88.4,107.2l-1.1-1.7c1.4-0.9,2.7-1.8,4.1-2.8l1.2,1.6
				C91.3,105.3,89.9,106.3,88.4,107.2z M25.9,106.2c-1.4-0.9-2.8-1.9-4.1-3l1.3-1.6c1.3,1,2.6,2,4,2.9L25.9,106.2z M96.6,101.1
				l-1.3-1.5c1.2-1.1,2.4-2.2,3.5-3.4l1.5,1.4C99,98.8,97.8,100,96.6,101.1z M17.9,99.8c-1.2-1.2-2.4-2.4-3.5-3.7l1.5-1.3
				c1.1,1.2,2.2,2.4,3.4,3.5L17.9,99.8z M103.5,93.7l-1.6-1.2c1-1.3,2-2.6,2.9-4l1.7,1.1C105.6,91,104.6,92.4,103.5,93.7z
				 M11.2,92.2c-1-1.4-2-2.8-2.8-4.2l1.7-1c0.8,1.4,1.8,2.8,2.7,4.1L11.2,92.2z M109.1,85.2l-1.8-0.9c0.8-1.4,1.5-2.9,2.1-4.4
				l1.8,0.8C110.6,82.2,109.9,83.7,109.1,85.2z M5.9,83.5c-0.7-1.5-1.4-3.1-2-4.7l1.9-0.7c0.6,1.5,1.3,3,2,4.5L5.9,83.5z M113,75.8
				l-1.9-0.6c0.5-1.6,0.9-3.1,1.3-4.7l1.9,0.4C114,72.6,113.6,74.2,113,75.8z M2.3,74c-0.5-1.6-0.9-3.3-1.2-4.9l2-0.4
				c0.3,1.6,0.7,3.2,1.2,4.8L2.3,74z M115.3,65.9l-2-0.3c0.2-1.6,0.4-3.3,0.5-4.9l2,0.1C115.7,62.6,115.5,64.3,115.3,65.9z
				 M0.3,64.1C0.1,62.4,0,60.7,0,59l2,0c0,1.6,0.1,3.3,0.3,4.9L0.3,64.1z M115.9,57.9h-2c0-1.6-0.1-3.3-0.2-4.9l2-0.2
				C115.8,54.5,115.9,56.2,115.9,57.9z M2.1,54.1l-2-0.1c0.1-1.7,0.3-3.4,0.6-5.1l2,0.3C2.4,50.8,2.2,52.4,2.1,54.1z M113,48.2
				c-0.3-1.6-0.6-3.2-1.1-4.8l1.9-0.5c0.4,1.6,0.8,3.3,1.1,5L113,48.2z M3.6,44.4l-1.9-0.5c0.4-1.6,0.9-3.3,1.4-4.9L5,39.7
				C4.5,41.2,4,42.8,3.6,44.4z M110.5,38.7c-0.6-1.5-1.2-3.1-1.9-4.5l1.8-0.9c0.7,1.5,1.4,3.1,2,4.7L110.5,38.7z M6.8,35.1L5,34.3
				c0.7-1.5,1.5-3.1,2.3-4.5l1.7,1C8.3,32.1,7.5,33.6,6.8,35.1z M106.3,29.8c-0.8-1.4-1.7-2.8-2.7-4.1l1.6-1.2
				c1,1.4,1.9,2.8,2.8,4.3L106.3,29.8z M11.6,26.5L10,25.4c1-1.4,2-2.8,3-4.1l1.5,1.3C13.5,23.9,12.5,25.2,11.6,26.5z M100.6,21.8
				c-1.1-1.2-2.2-2.5-3.3-3.6l1.4-1.4c1.2,1.2,2.4,2.4,3.5,3.7L100.6,21.8z M17.8,18.9l-1.4-1.4c1.2-1.2,2.4-2.4,3.7-3.5l1.3,1.5
				C20.2,16.6,19,17.8,17.8,18.9z M93.7,14.9c-1.3-1-2.6-2-3.9-3l1.1-1.6c1.4,1,2.8,2,4,3.1L93.7,14.9z M25.3,12.5l-1.2-1.6
				c1.4-1,2.8-1.9,4.3-2.8l1,1.7C28,10.7,26.6,11.6,25.3,12.5z M85.6,9.3c-1.4-0.8-2.9-1.6-4.4-2.2l0.8-1.8c1.5,0.7,3.1,1.5,4.5,2.3
				L85.6,9.3z M33.7,7.5l-0.9-1.8c1.5-0.7,3.1-1.4,4.7-2l0.7,1.9C36.7,6.2,35.2,6.8,33.7,7.5z M76.7,5.2c-1.5-0.5-3.1-1-4.7-1.4
				l0.5-1.9c1.6,0.4,3.3,0.9,4.9,1.5L76.7,5.2z M42.9,4l-0.5-1.9c1.6-0.5,3.3-0.8,5-1.1l0.4,2C46,3.2,44.4,3.6,42.9,4z M67.2,2.8
				c-1.6-0.3-3.2-0.5-4.9-0.6l0.2-2c1.7,0.1,3.4,0.3,5,0.6L67.2,2.8z M52.5,2.3l-0.2-2C54,0.1,55.7,0,57.4,0l0,2
				C55.8,2,54.1,2.1,52.5,2.3z"/>
		</g>
	</g>
	
		<linearGradient id="SVGID_38_" gradientUnits="userSpaceOnUse" x1="-3249.9583" y1="950.5721" x2="-3265.7915" y2="995.9054" gradientTransform="matrix(4.489700e-011 -1 1 4.489700e-011 -759.0203 -3184.1028)">
		<stop  offset="0" style="stop-color:#6FBEC9;stop-opacity:0"/>
		<stop  offset="1" style="stop-color:#6FBEC9;stop-opacity:0.3"/>
	</linearGradient>
	<path class="st39" d="M238.4,79.5l-45.3,24.6c0,0-21.6-40.9,19.5-68.6L238.4,79.5z"/>
</g>
</svg>
