<?xml version="1.0" encoding="utf-8"?>
<!-- Generator: Adobe Illustrator 19.2.1, SVG Export Plug-In . SVG Version: 6.00 Build 0)  -->
<svg version="1.1" id="Ebene_1" xmlns="http://www.w3.org/2000/svg" xmlns:xlink="http://www.w3.org/1999/xlink" x="0px" y="0px"
	 viewBox="0 0 23 91.7" style="enable-background:new 0 0 23 91.7;" xml:space="preserve">
<style type="text/css">
	.st0{fill:#70BA71;}
	.st1{opacity:0.5;fill:#768070;}
	.st2{fill:#D4C85F;}
	.st3{fill:#D55F5F;}
</style>
<g>
	<circle class="st0" cx="11.5" cy="80.2" r="11.5"/>
	<path class="st1" d="M21.6,80.2c0,5.6-4.5,10.1-10.1,10.1c-3.6,0-6.8-1.9-8.6-4.7c1.6,1,3.4,1.6,5.4,1.6c5.6,0,10.1-4.5,10.1-10.1
		c0-2-0.6-3.9-1.6-5.4C19.8,73.5,21.6,76.6,21.6,80.2z"/>
</g>
<g>
	<circle class="st2" cx="11.5" cy="45.9" r="11.5"/>
	<path class="st1" d="M21.6,45.9c0,5.6-4.5,10.1-10.1,10.1c-3.6,0-6.8-1.9-8.6-4.7c1.6,1,3.4,1.6,5.4,1.6c5.6,0,10.1-4.5,10.1-10.1
		c0-2-0.6-3.9-1.6-5.4C19.8,39.1,21.6,42.3,21.6,45.9z"/>
</g>
<g>
	<circle class="st3" cx="11.5" cy="11.5" r="11.5"/>
	<path class="st1" d="M21.6,11.5c0,5.6-4.5,10.1-10.1,10.1c-3.6,0-6.8-1.9-8.6-4.7c1.6,1,3.4,1.6,5.4,1.6c5.6,0,10.1-4.5,10.1-10.1
		c0-2-0.6-3.9-1.6-5.4C19.8,4.7,21.6,7.9,21.6,11.5z"/>
</g>
</svg>
