<?xml version="1.0" encoding="utf-8"?>
<!-- Generator: Adobe Illustrator 19.2.1, SVG Export Plug-In . SVG Version: 6.00 Build 0)  -->
<svg version="1.1" id="Ebene_1" xmlns="http://www.w3.org/2000/svg" xmlns:xlink="http://www.w3.org/1999/xlink" x="0px" y="0px"
	 viewBox="0 0 595.3 406.1" style="enable-background:new 0 0 595.3 406.1;" xml:space="preserve">
<style type="text/css">
	.st0{fill:#1B1824;}
	.st1{opacity:0.5;}
	.st2{opacity:0.3;}
	.st3{fill:#E4E8CD;}
	.st4{fill:none;}
	.st5{opacity:0.1;}
</style>
<rect y="-5.1" class="st0" width="595.3" height="411.2"/>
<g class="st1">
	<g class="st2">
		<circle class="st3" cx="51.6" cy="320.4" r="1.8"/>
		<circle class="st3" cx="78.7" cy="278.7" r="1.3"/>
		<circle class="st3" cx="57.6" cy="294" r="1"/>
		<circle class="st3" cx="68.8" cy="307.8" r="0.5"/>
		<g>
			<g>
				<rect x="251" y="91.6" class="st4" width="39.1" height="58.2"/>
				<g>
					<circle class="st3" cx="253.3" cy="147.4" r="2.3"/>
				</g>
				<g>
					<circle class="st3" cx="288.5" cy="93.2" r="1.7"/>
				</g>
				<g>
					<circle class="st3" cx="261" cy="113.1" r="1.3"/>
				</g>
				<g>
					<circle class="st3" cx="275.6" cy="131.1" r="0.6"/>
				</g>
			</g>
			<g>
				<rect x="103.4" y="199.5" class="st4" width="38" height="56.5"/>
				<g>
					<circle class="st3" cx="105.6" cy="253.7" r="2.2"/>
				</g>
				<g>
					<circle class="st3" cx="139.8" cy="201.1" r="1.6"/>
				</g>
				<g>
					<circle class="st3" cx="113.1" cy="220.4" r="1.2"/>
				</g>
				<g>
					<circle class="st3" cx="127.3" cy="237.8" r="0.6"/>
				</g>
			</g>
			<g>
				<rect x="116.2" y="80.6" class="st4" width="38.7" height="57.6"/>
				<g>
					<circle class="st3" cx="118.4" cy="135.9" r="2.3"/>
				</g>
				<g>
					<circle class="st3" cx="153.2" cy="82.3" r="1.7"/>
				</g>
				<g>
					<circle class="st3" cx="126" cy="102" r="1.3"/>
				</g>
				<g>
					<circle class="st3" cx="140.5" cy="119.7" r="0.6"/>
				</g>
			</g>
		</g>
		<g>
			<g>
				<rect x="182.5" y="169.3" class="st4" width="95.3" height="141.7"/>
				<g>
					<circle class="st3" cx="188" cy="305.4" r="5.6"/>
				</g>
				<g>
					<circle class="st3" cx="273.7" cy="173.4" r="4.1"/>
				</g>
				<g>
					<circle class="st3" cx="206.8" cy="221.9" r="3.1"/>
				</g>
				<g>
					<circle class="st3" cx="242.4" cy="265.6" r="1.6"/>
				</g>
			</g>
			<g>
				<rect x="64.2" y="135" class="st4" width="55.6" height="82.7"/>
				<g>
					<circle class="st3" cx="67.5" cy="214.5" r="3.2"/>
				</g>
				<g>
					<circle class="st3" cx="117.5" cy="137.4" r="2.4"/>
				</g>
				<g>
					<circle class="st3" cx="78.4" cy="165.7" r="1.8"/>
				</g>
				<g>
					<circle class="st3" cx="99.2" cy="191.2" r="0.9"/>
				</g>
			</g>
		</g>
		<g>
			<g>
				<rect x="81.1" y="194.2" class="st4" width="106.2" height="157.8"/>
				<g>
					<circle class="st3" cx="87.3" cy="345.8" r="6.2"/>
				</g>
				<g>
					<circle class="st3" cx="182.8" cy="198.7" r="4.5"/>
				</g>
				<g>
					<circle class="st3" cx="108.3" cy="252.8" r="3.5"/>
				</g>
				<g>
					<circle class="st3" cx="148" cy="301.4" r="1.7"/>
				</g>
			</g>
			<g>
				<rect x="18.1" y="116.7" class="st4" width="77" height="114.4"/>
				<g>
					<circle class="st3" cx="22.6" cy="226.6" r="4.5"/>
				</g>
				<g>
					<circle class="st3" cx="91.8" cy="120" r="3.3"/>
				</g>
				<g>
					<circle class="st3" cx="37.8" cy="159.2" r="2.5"/>
				</g>
				<g>
					<circle class="st3" cx="66.6" cy="194.4" r="1.3"/>
				</g>
			</g>
		</g>
		<g>
			<g>
				<rect x="207.8" y="187.8" class="st4" width="34.9" height="51.9"/>
				<g>
					<circle class="st3" cx="209.8" cy="237.7" r="2"/>
				</g>
				<g>
					<circle class="st3" cx="241.2" cy="189.3" r="1.5"/>
				</g>
				<g>
					<circle class="st3" cx="216.7" cy="207.1" r="1.1"/>
				</g>
				<g>
					<circle class="st3" cx="229.7" cy="223.1" r="0.6"/>
				</g>
			</g>
			<g>
				<g>
					<circle class="st3" cx="138.6" cy="136.3" r="5.1"/>
				</g>
				<g>
					<circle class="st3" cx="217" cy="15.6" r="3.7"/>
				</g>
				<g>
					<circle class="st3" cx="155.8" cy="59.9" r="2.9"/>
				</g>
				<g>
					<circle class="st3" cx="188.3" cy="99.9" r="1.4"/>
				</g>
			</g>
		</g>
		<g>
			<rect x="230.2" y="146.9" class="st4" width="107.1" height="159.1"/>
			<g>
				<circle class="st3" cx="236.4" cy="299.8" r="6.3"/>
			</g>
			<g>
				<circle class="st3" cx="332.7" cy="151.5" r="4.6"/>
			</g>
			<g>
				<circle class="st3" cx="257.5" cy="206" r="3.5"/>
			</g>
			<g>
				<circle class="st3" cx="297.5" cy="255.1" r="1.8"/>
			</g>
		</g>
	</g>
	<g class="st1">
		<g>
			<circle class="st3" cx="588.7" cy="106.3" r="1.8"/>
			<circle class="st3" cx="561.6" cy="148" r="1.3"/>
			<circle class="st3" cx="582.7" cy="132.7" r="1"/>
			<circle class="st3" cx="571.5" cy="118.9" r="0.5"/>
			<g>
				<g>
					<rect x="337.3" y="118.3" class="st4" width="76.5" height="113.7"/>
					<g>
						<circle class="st3" cx="409.4" cy="122.7" r="4.5"/>
					</g>
					<g>
						<circle class="st3" cx="340.6" cy="228.7" r="3.3"/>
					</g>
					<g>
						<circle class="st3" cx="394.3" cy="189.8" r="2.5"/>
					</g>
					<g>
						<circle class="st3" cx="365.7" cy="154.7" r="1.3"/>
					</g>
				</g>
				<g>
					<rect x="440.3" y="308.3" class="st4" width="48.1" height="71.5"/>
					<g>
						<circle class="st3" cx="485.6" cy="311.2" r="2.8"/>
					</g>
					<g>
						<circle class="st3" cx="442.4" cy="377.8" r="2.1"/>
					</g>
					<g>
						<circle class="st3" cx="476.1" cy="353.3" r="1.6"/>
					</g>
					<g>
						<circle class="st3" cx="458.1" cy="331.3" r="0.8"/>
					</g>
				</g>
			</g>
			<g>
				<g>
					<rect x="315.6" y="242.3" class="st4" width="82.4" height="122.4"/>
					<g>
						<circle class="st3" cx="393.1" cy="247.2" r="4.8"/>
					</g>
					<g>
						<circle class="st3" cx="319.1" cy="361.3" r="3.5"/>
					</g>
					<g>
						<circle class="st3" cx="376.9" cy="319.4" r="2.7"/>
					</g>
					<g>
						<circle class="st3" cx="346.1" cy="281.6" r="1.3"/>
					</g>
				</g>
				<g>
					<rect x="437.3" y="228.5" class="st4" width="80.9" height="120.2"/>
					<g>
						<circle class="st3" cx="513.5" cy="233.2" r="4.7"/>
					</g>
					<g>
						<circle class="st3" cx="440.8" cy="345.3" r="3.5"/>
					</g>
					<g>
						<circle class="st3" cx="497.6" cy="304.1" r="2.7"/>
					</g>
					<g>
						<circle class="st3" cx="467.3" cy="267" r="1.3"/>
					</g>
				</g>
			</g>
			<g>
				<g>
					<rect x="511.5" y="47.8" class="st4" width="35.2" height="52.3"/>
					<g>
						<circle class="st3" cx="544.7" cy="49.8" r="2.1"/>
					</g>
					<g>
						<circle class="st3" cx="513" cy="98.5" r="1.5"/>
					</g>
					<g>
						<circle class="st3" cx="537.7" cy="80.6" r="1.2"/>
					</g>
					<g>
						<circle class="st3" cx="524.6" cy="64.5" r="0.6"/>
					</g>
				</g>
				<g>
					<rect x="515.7" y="236.3" class="st4" width="64.2" height="95.4"/>
					<g>
						<circle class="st3" cx="576.1" cy="240" r="3.7"/>
					</g>
					<g>
						<circle class="st3" cx="518.4" cy="328.9" r="2.7"/>
					</g>
					<g>
						<circle class="st3" cx="563.5" cy="296.3" r="2.1"/>
					</g>
					<g>
						<circle class="st3" cx="539.5" cy="266.8" r="1"/>
					</g>
				</g>
			</g>
			<g>
				<g>
					<rect x="437.6" y="161" class="st4" width="31" height="46.1"/>
					<g>
						<circle class="st3" cx="466.8" cy="162.8" r="1.8"/>
					</g>
					<g>
						<circle class="st3" cx="439" cy="205.8" r="1.3"/>
					</g>
					<g>
						<circle class="st3" cx="460.7" cy="190" r="1"/>
					</g>
					<g>
						<circle class="st3" cx="449.1" cy="175.8" r="0.5"/>
					</g>
				</g>
				<g>
					<rect x="446.6" y="268.7" class="st4" width="81.7" height="121.4"/>
					<g>
						<circle class="st3" cx="523.5" cy="273.5" r="4.8"/>
					</g>
					<g>
						<circle class="st3" cx="450.1" cy="386.6" r="3.5"/>
					</g>
					<g>
						<circle class="st3" cx="507.5" cy="345.1" r="2.7"/>
					</g>
					<g>
						<circle class="st3" cx="476.9" cy="307.6" r="1.3"/>
					</g>
				</g>
			</g>
			<g>
				<rect x="303" y="120.7" class="st4" width="107.1" height="159.1"/>
				<g>
					<circle class="st3" cx="403.9" cy="126.9" r="6.3"/>
				</g>
				<g>
					<circle class="st3" cx="307.6" cy="275.2" r="4.6"/>
				</g>
				<g>
					<circle class="st3" cx="382.8" cy="220.8" r="3.5"/>
				</g>
				<g>
					<circle class="st3" cx="342.8" cy="171.7" r="1.8"/>
				</g>
			</g>
		</g>
		<g class="st5">
			<circle class="st3" cx="58.9" cy="322.6" r="1.8"/>
			<circle class="st3" cx="86" cy="280.9" r="1.3"/>
			<circle class="st3" cx="64.9" cy="296.2" r="1"/>
			<circle class="st3" cx="76.1" cy="310" r="0.5"/>
			<g>
				<g>
					<rect x="209.9" y="250.2" class="st4" width="30.9" height="46"/>
					<g>
						<circle class="st3" cx="239" cy="252" r="1.8"/>
					</g>
					<g>
						<circle class="st3" cx="211.2" cy="294.8" r="1.3"/>
					</g>
					<g>
						<circle class="st3" cx="232.9" cy="279.1" r="1"/>
					</g>
					<g>
						<circle class="st3" cx="221.4" cy="264.9" r="0.5"/>
					</g>
				</g>
				<g>
					<rect x="11.5" y="150.2" class="st4" width="45" height="67"/>
					<g>
						<circle class="st3" cx="53.9" cy="152.8" r="2.6"/>
					</g>
					<g>
						<circle class="st3" cx="13.4" cy="215.2" r="1.9"/>
					</g>
					<g>
						<circle class="st3" cx="45" cy="192.3" r="1.5"/>
					</g>
					<g>
						<circle class="st3" cx="28.2" cy="171.6" r="0.7"/>
					</g>
				</g>
			</g>
			<g>
				<g>
					<rect x="150.3" y="184.5" class="st4" width="43.9" height="65.3"/>
					<g>
						<circle class="st3" cx="191.7" cy="187.1" r="2.6"/>
					</g>
					<g>
						<circle class="st3" cx="152.2" cy="247.9" r="1.9"/>
					</g>
					<g>
						<circle class="st3" cx="183" cy="225.6" r="1.4"/>
					</g>
					<g>
						<circle class="st3" cx="166.6" cy="205.5" r="0.7"/>
					</g>
				</g>
				<g>
					<rect x="47.9" y="116.7" class="st4" width="88.5" height="131.6"/>
					<g>
						<circle class="st3" cx="131.3" cy="121.8" r="5.2"/>
					</g>
					<g>
						<circle class="st3" cx="51.7" cy="244.5" r="3.8"/>
					</g>
					<g>
						<circle class="st3" cx="113.9" cy="199.4" r="2.9"/>
					</g>
					<g>
						<circle class="st3" cx="80.8" cy="158.8" r="1.4"/>
					</g>
				</g>
			</g>
			<g>
				<g>
					<rect x="23.9" y="240.4" class="st4" width="36.6" height="54.3"/>
					<g>
						<circle class="st3" cx="58.3" cy="242.6" r="2.1"/>
					</g>
					<g>
						<circle class="st3" cx="25.5" cy="293.2" r="1.6"/>
					</g>
					<g>
						<circle class="st3" cx="51.1" cy="274.6" r="1.2"/>
					</g>
					<g>
						<circle class="st3" cx="37.5" cy="257.9" r="0.6"/>
					</g>
				</g>
				<g>
					<rect x="126.7" y="57.6" class="st4" width="54.4" height="80.9"/>
					<g>
						<circle class="st3" cx="178" cy="60.8" r="3.2"/>
					</g>
					<g>
						<circle class="st3" cx="129" cy="136.2" r="2.3"/>
					</g>
					<g>
						<circle class="st3" cx="167.3" cy="108.5" r="1.8"/>
					</g>
					<g>
						<circle class="st3" cx="146.9" cy="83.5" r="0.9"/>
					</g>
				</g>
			</g>
			<g>
				<g>
					<rect x="207.6" y="149.4" class="st4" width="70.2" height="104.3"/>
					<g>
						<circle class="st3" cx="273.8" cy="153.5" r="4.1"/>
					</g>
					<g>
						<circle class="st3" cx="210.6" cy="250.7" r="3"/>
					</g>
					<g>
						<circle class="st3" cx="259.9" cy="215" r="2.3"/>
					</g>
					<g>
						<circle class="st3" cx="233.7" cy="182.9" r="1.1"/>
					</g>
				</g>
				<g>
					<rect x="95.3" y="40.3" class="st4" width="97.9" height="145.5"/>
					<g>
						<circle class="st3" cx="187.4" cy="46.1" r="5.7"/>
					</g>
					<g>
						<circle class="st3" cx="99.4" cy="181.7" r="4.2"/>
					</g>
					<g>
						<circle class="st3" cx="168.2" cy="131.9" r="3.2"/>
					</g>
					<g>
						<circle class="st3" cx="131.6" cy="87" r="1.6"/>
					</g>
				</g>
			</g>
			<g>
				<rect x="237.5" y="149.1" class="st4" width="107.1" height="159.1"/>
				<g>
					<circle class="st3" cx="338.3" cy="155.4" r="6.3"/>
				</g>
				<g>
					<circle class="st3" cx="242" cy="303.7" r="4.6"/>
				</g>
				<g>
					<circle class="st3" cx="317.2" cy="249.2" r="3.5"/>
				</g>
				<g>
					<circle class="st3" cx="277.2" cy="200.2" r="1.8"/>
				</g>
			</g>
		</g>
		<g class="st2">
			<circle class="st3" cx="58.9" cy="322.6" r="1.8"/>
			<circle class="st3" cx="86" cy="280.9" r="1.3"/>
			<circle class="st3" cx="64.9" cy="296.2" r="1"/>
			<circle class="st3" cx="76.1" cy="310" r="0.5"/>
			<g>
				<g>
					<rect x="233.8" y="197" class="st4" width="76.5" height="113.7"/>
					<g>
						<circle class="st3" cx="305.8" cy="201.4" r="4.5"/>
					</g>
					<g>
						<circle class="st3" cx="237" cy="307.4" r="3.3"/>
					</g>
					<g>
						<circle class="st3" cx="290.7" cy="268.5" r="2.5"/>
					</g>
					<g>
						<circle class="st3" cx="262.1" cy="233.4" r="1.3"/>
					</g>
				</g>
				<g>
					<rect x="159.2" y="49.1" class="st4" width="48.1" height="71.5"/>
					<g>
						<circle class="st3" cx="204.5" cy="51.9" r="2.8"/>
					</g>
					<g>
						<circle class="st3" cx="161.2" cy="118.5" r="2.1"/>
					</g>
					<g>
						<circle class="st3" cx="195" cy="94.1" r="1.6"/>
					</g>
					<g>
						<circle class="st3" cx="177" cy="72" r="0.8"/>
					</g>
				</g>
			</g>
			<g>
				<g>
					<rect x="249.6" y="64.1" class="st4" width="82.4" height="122.4"/>
					<g>
						<circle class="st3" cx="327.2" cy="68.9" r="4.8"/>
					</g>
					<g>
						<circle class="st3" cx="253.1" cy="183.1" r="3.5"/>
					</g>
					<g>
						<circle class="st3" cx="311" cy="141.2" r="2.7"/>
					</g>
					<g>
						<circle class="st3" cx="280.2" cy="103.4" r="1.3"/>
					</g>
				</g>
				<g>
					<rect x="129.3" y="80.2" class="st4" width="80.9" height="120.2"/>
					<g>
						<circle class="st3" cx="205.5" cy="84.9" r="4.7"/>
					</g>
					<g>
						<circle class="st3" cx="132.8" cy="197" r="3.5"/>
					</g>
					<g>
						<circle class="st3" cx="189.6" cy="155.8" r="2.7"/>
					</g>
					<g>
						<circle class="st3" cx="159.4" cy="118.8" r="1.3"/>
					</g>
				</g>
			</g>
			<g>
				<g>
					<rect x="100.9" y="328.9" class="st4" width="35.2" height="52.3"/>
					<g>
						<circle class="st3" cx="134" cy="330.9" r="2.1"/>
					</g>
					<g>
						<circle class="st3" cx="102.4" cy="379.7" r="1.5"/>
					</g>
					<g>
						<circle class="st3" cx="127.1" cy="361.8" r="1.2"/>
					</g>
					<g>
						<circle class="st3" cx="113.9" cy="345.6" r="0.6"/>
					</g>
				</g>
				<g>
					<rect x="67.7" y="97.3" class="st4" width="64.2" height="95.4"/>
					<g>
						<circle class="st3" cx="128.2" cy="101" r="3.7"/>
					</g>
					<g>
						<circle class="st3" cx="70.5" cy="189.9" r="2.7"/>
					</g>
					<g>
						<circle class="st3" cx="115.5" cy="157.3" r="2.1"/>
					</g>
					<g>
						<circle class="st3" cx="91.5" cy="127.9" r="1"/>
					</g>
				</g>
			</g>
			<g>
				<g>
					<rect x="178.9" y="221.8" class="st4" width="31" height="46.1"/>
					<g>
						<circle class="st3" cx="208.1" cy="223.6" r="1.8"/>
					</g>
					<g>
						<circle class="st3" cx="180.3" cy="266.6" r="1.3"/>
					</g>
					<g>
						<circle class="st3" cx="202" cy="250.8" r="1"/>
					</g>
					<g>
						<circle class="st3" cx="190.4" cy="236.6" r="0.5"/>
					</g>
				</g>
				<g>
					<rect x="119.3" y="38.8" class="st4" width="81.7" height="121.4"/>
					<g>
						<circle class="st3" cx="196.2" cy="43.6" r="4.8"/>
					</g>
					<g>
						<circle class="st3" cx="122.8" cy="156.7" r="3.5"/>
					</g>
					<g>
						<circle class="st3" cx="180.1" cy="115.2" r="2.7"/>
					</g>
					<g>
						<circle class="st3" cx="149.6" cy="77.7" r="1.3"/>
					</g>
				</g>
			</g>
			<g>
				<rect x="237.5" y="149.1" class="st4" width="107.1" height="159.1"/>
				<g>
					<circle class="st3" cx="338.3" cy="155.4" r="6.3"/>
				</g>
				<g>
					<circle class="st3" cx="242" cy="303.7" r="4.6"/>
				</g>
				<g>
					<circle class="st3" cx="317.2" cy="249.2" r="3.5"/>
				</g>
				<g>
					<circle class="st3" cx="277.2" cy="200.2" r="1.8"/>
				</g>
			</g>
		</g>
	</g>
</g>
</svg>
